# xmcd
#
# Track frame offsets: 
#        150
#        19430
#        35335
#        48605
#        66462
#        85920
#        102612
#        130962
#        146997
#        165220
#        180920
#        205850
#        224015
#
# Disc length: 3300 seconds
#
# Revision: 2
# Processed by: cddbd v1.5.1PL0 Copyright (c) Steve Scherf et al.
# Submitted via: ExactAudioCopy v0.95b2
#
DISCID=c60ce20d
DTITLE=Marcia Ball - Let Me Play With Your Poodle
DYEAR=1997
DGENRE=Blues
TTITLE0=Let Me Play With Your Poodle
TTITLE1=Why Women Cry
TTITLE2=Crawfishin'
TTITLE3=How Big A Fool
TTITLE4=The Right Tool For The Job
TTITLE5=I'm Just A Prisoner
TTITLE6=I Still Love You
TTITLE7=Can't Trust My Heart
TTITLE8=The Story Of My Life
TTITLE9=Something I Can't Do
TTITLE10=For The Love Of A Man
TTITLE11=American Dream
TTITLE12=Louisiana 1927
EXTD=
EXTT0=
EXTT1=
EXTT2=
EXTT3=
EXTT4=
EXTT5=
EXTT6=
EXTT7=
EXTT8=
EXTT9=
EXTT10=
EXTT11=
EXTT12=
PLAYORDER=
